<svg xmlns="http://www.w3.org/2000/svg" viewBox="-1 105 70 71" width="180" height="180">
  <title>Dalili</title>
  <rect x="-1" y="105" width="70" height="71" rx="16" fill="#010410"/>
  <g>
    <path fill="#006cfd" d="M45.83,124.17h-13.08s-12.61,12.62-12.61,12.62l6.87,6.9,10.2-10.03c.93-.48,3.49-.48,4.16.29l11.98,13.73-12.33,12.45c-1.41,1.43-2.43,2.99-4.05,4.34h-16.74c-1.73-1.43-2.84-2.99-4.25-4.58-5.09-5.75-10.17-11.5-15.26-17.25-.21-.22-.38-.39-.5-.5-.05-.04-.11-.1-.21-.14,0,0,0,0-.01,0,.1.12.08.58.08.84v14.73s14.37,16.39,14.37,16.39l26.56.04,2.49-2.55,23.38-23.49-21.05-23.8Z"/>
    <path fill="#0078fe" d="M66.99,125.02l-14.38-16.39-26.56-.04-2.49,2.55L.19,134.62l21.05,23.8h13.08s12.61-12.62,12.61-12.62l-6.87-6.9-10.2,10.03c-.93.48-3.49.48-4.16-.29l-11.98-13.73,12.33-12.45c1.41-1.43,2.43-2.99,4.05-4.34h16.74c1.73,1.43,2.84,2.99,4.25,4.58l15.26,17.25c.28.32.46.55.73.65-.03-5.2-.05-10.39-.08-15.59Z"/>
  </g>
</svg>
